.
 
http://www.scenetime.com    -   SceneTime [ We been having it ] !!!


How come you press harder on a remote control when you know the battery is dead? so you better seed to get speed ;)

        Seed back for speed


...................................NFO:.................................................
                                                                             
 :::  :::  :::::  :::   :::   :::::    ::: :::     :::    :::::    
 :::  :::  ::::::::::  :::   :::::::    ::::: :::     :::   :::::::   
 :::  ::::::::::::::::::::::::::: ::: ::: :::     :::  :::::::::  
 :::  ::: :::::::::::: :::::: ::: ::: :::     :::  ::::::  
 :::  ::: ::: :::::::::: :::  ::: ::: :::  :::     :::  ::: :::  
 :::  ::: ::: :::::::::  :::  ::: ::: :::  :::  :  :::  ::: :::  
 :::  ::: ::: :::::::::: :::  ::: ::: :::  ::: ::: :::  ::: :::  
 :::  ::: ::: ::::::::::::  ::: ::: :::  ::: : : :::  ::: :::  
 :::..::: ::: :::::: ::::::  ::: ::: :::  ::::: :::::  ::: :::  
 ::::::::: :::::: ::::::  ::: ::::: ::::: :::::  ::: :::  
  ::::  ::: ::::::  ::::::  ::: :::  ::::   ::::  ::: :::  

                                                                              
                  NOTES                    
                                                                              
                  NOTES                    
                                                                              
                                                                              
                                                                              
 Encoded By .......:UnKnOwN                                                   
 Runtime ..........:1:43                                                      
 IMDb URL .........:http://www.imdb.com/title/tt1067774/                      
 Language .........:English                                                   
 File Size ........:1.01gb                                                    
 Release Date ......... 2011                                                  
 Source       ......... Russian/                                              
 File Type    ......... Single AVI                                            
 PS3 Compatible ....... No Clue                                               
 Genre        ......... Comedy                                                
                                                                              
                                                                              
 Video                                                                        
  ID                               : 0                                        
  Format                           : MPEG-4 Visual                            
  Format profile                   : Advanced Simple@L5                        
  Format settings, BVOP            : Yes                                       
  Format settings, QPel            : No                                        
  Format settings, GMC             : No warppoints                             
  Format settings, Matrix          : Custom                                    
  Codec ID                         : XVID                                      
  Codec ID/Hint                    : XviD                                      
  Duration                         : 1h 43mn                                   
  Bit rate                         : 1 129 Kbps                                
  Width                            : 680 pixels                                
  Height                           : 364 pixels                                
  Display aspect ratio             : 1.86.8                                    
  Frame rate                       : 25.000 fps                                
  Color space                      : YUV                                       
  Chroma subsampling               : 4:2:0                                     
  Bit depth                        : 8 bits                                    
  Scan type                        : Progressive                               
  Bits/(Pixel*Frame)               : 0.234                                     
  Stream size                      : 892 MiB (86%)                             
  Writing library                  : XviD 1.2.1 (UTC 2008-12-04)              
                                                                              
                                                                              
 Audio                                                                         
 ID                               : 1                                          
 Format                           : MPEG Audio                                 
 Format/Info                      : Version 1                                  
 Mode extension                   : CM (complete main)                         
 Codec ID                         : 2000                                       
 Duration                         : 1h 43mn                                    
 Bit rate mode                    : Constant                                   
 Bit rate                         : 128 Kbps                                   
 Channel(s)                       : 2 channels                                 
 Channel positions                : Front: L R                                 
 Sampling rate                    : 44.1 KHz                                   
 Bit depth                        : 16 bits                                    
 Stream size                      : 139 MiB                                    
 Alignment                        : Aligned on interleaves                     
 Interleave, duration             : 42 ms (1.00 video frame)                   
 Interleave, preload duration     : 512 ms                                    
                                                                              
                                                                              
                                                                              
                                                                               
                                                                              
                                                                              
                                                                              
                                 SYSPNOSIS                                    
   Three young women vacationing in Paris find themselves whisked away to     
   Monte Carlo after one of the girls is mistaken for a British heiress.      
                                                                              
                                                                              
                                RELEASE INFO                                  
                                                                              
     Russian Source had color issues corrected those,Slight sharpen           
           bla bla,Audio is from our cam.Sample included enjoy.               
                                                                              
                                                                              
                                                                              
                                                                              

                 
              
                                                                              
                                 LOOKING FOR                                  
                                                                              
                         Koala skin need a new hat(:                          
                                                                              
                                                                              
                                                                              
                                                                              

               GREETZ & RESPECT               
  
                          NOBODY YET WILL LET YOU KNOW                        
                                                                              
                          MORE GOODIES COMING REAL SOON